<svg id="visual" viewBox="0 0 900 600" width="900" height="600" xmlns="http://www.w3.org/2000/svg" xmlns:xlink="http://www.w3.org/1999/xlink" version="1.1"><path d="M0 55L75 56C150 57 300 59 450 59C600 59 750 57 825 56L900 55L900 0L825 0C750 0 600 0 450 0C300 0 150 0 75 0L0 0Z" fill="#ffffff"></path><path d="M0 145L75 146C150 147 300 149 450 151C600 153 750 155 825 156L900 157L900 53L825 54C750 55 600 57 450 57C300 57 150 55 75 54L0 53Z" fill="#ebf7fc"></path><path d="M0 223L75 223C150 223 300 223 450 224C600 225 750 227 825 228L900 229L900 155L825 154C750 153 600 151 450 149C300 147 150 145 75 144L0 143Z" fill="#d6eef9"></path><path d="M0 289L75 289C150 289 300 289 450 289C600 289 750 289 825 289L900 289L900 227L825 226C750 225 600 223 450 222C300 221 150 221 75 221L0 221Z" fill="#c1e6f7"></path><path d="M0 433L75 436C150 439 300 445 450 447C600 449 750 447 825 446L900 445L900 287L825 287C750 287 600 287 450 287C300 287 150 287 75 287L0 287Z" fill="#abdef4"></path><path d="M0 601L75 601C150 601 300 601 450 601C600 601 750 601 825 601L900 601L900 443L825 444C750 445 600 447 450 445C300 443 150 437 75 434L0 431Z" fill="#93d6f1"></path></svg>